<?xml version="1.0" standalone="no"?>
<!DOCTYPE svg PUBLIC "-//W3C//DTD SVG 20010904//EN"
 "http://www.w3.org/TR/2001/REC-SVG-20010904/DTD/svg10.dtd">
<svg version="1.0" xmlns="http://www.w3.org/2000/svg"
 width="181.000000pt" height="300.000000pt" viewBox="0 0 181.000000 300.000000"
 preserveAspectRatio="xMidYMid meet">
<metadata>
Created by potrace 1.10, written by Peter Selinger 2001-2011
</metadata>
<g transform="translate(0.000000,300.000000) scale(0.100000,-0.100000)"
fill="#000000" stroke="none">
<path d="M966 2651 c-3 -4 -25 -11 -50 -13 -52 -6 -135 -44 -143 -65 -3 -8
-17 -26 -29 -39 -13 -12 -24 -28 -24 -34 0 -5 -6 -10 -14 -10 -8 0 -18 -10
-22 -22 -9 -32 -82 -110 -119 -128 -36 -18 -43 -49 -20 -84 16 -24 16 -27 -3
-53 -31 -45 -63 -113 -57 -123 3 -4 -9 -31 -26 -59 -32 -51 -50 -70 -28 -30
15 29 -1 43 -29 23 -37 -26 -71 -95 -75 -154 -3 -30 -21 -100 -42 -155 -20
-55 -38 -118 -40 -140 -1 -22 -10 -82 -19 -134 -15 -80 -16 -109 -6 -200 26
-254 81 -506 131 -604 20 -39 29 -73 29 -105 0 -26 7 -85 15 -132 16 -90 11
-145 -21 -243 -16 -50 -14 -98 7 -124 9 -10 44 -13 139 -13 69 0 129 2 131 4
9 9 -9 132 -25 174 -9 24 -19 82 -22 130 -6 76 -4 89 11 102 14 12 19 12 22 3
3 -7 13 -13 23 -13 10 0 22 -4 25 -10 11 -18 25 -10 42 25 29 60 33 52 58 -95
14 -79 14 -105 4 -158 -6 -35 -9 -81 -6 -103 4 -34 2 -39 -14 -39 -10 0 -19
-4 -19 -9 0 -5 74 -9 164 -10 l164 -2 6 27 c13 48 -4 113 -39 149 -50 54 -74
165 -39 179 14 5 16 18 12 77 -5 69 -5 70 16 56 11 -8 28 -27 36 -43 8 -16 29
-52 47 -80 45 -69 53 -102 53 -219 0 -158 -16 -145 176 -145 l164 0 -4 23 c-3
12 -8 40 -11 62 -5 28 -20 54 -50 86 -25 27 -48 64 -54 86 -18 65 -29 168 -20
171 5 2 9 10 9 18 0 20 13 17 27 -6 7 -10 32 -24 55 -31 24 -6 55 -20 69 -30
15 -10 30 -19 33 -19 14 0 4 51 -24 128 -33 91 -39 135 -16 126 22 -8 28 12
16 55 -6 22 -15 85 -20 142 -8 87 -8 104 5 113 13 10 14 22 4 91 -15 111 6
309 36 337 18 17 20 31 20 141 1 102 4 128 20 157 13 24 19 55 20 101 0 56 -4
73 -30 115 -17 27 -37 49 -45 49 -17 0 -17 -6 0 -87 14 -64 5 -112 -12 -68 -5
14 -7 33 -4 44 5 18 -7 59 -58 205 l-26 74 45 48 c25 26 45 54 45 62 0 24 -49
65 -86 72 -20 3 -39 4 -42 1 -9 -10 -50 66 -45 85 3 11 -10 34 -34 61 -21 24
-43 52 -49 63 -6 11 -26 30 -45 42 -19 12 -42 29 -51 37 -10 9 -29 18 -43 22
-16 4 -25 13 -25 25 0 15 -5 18 -24 13 -14 -3 -36 2 -57 15 -36 22 -64 27 -73
12z m78 -42 c19 -11 40 -18 45 -15 5 3 12 -1 15 -9 3 -9 16 -20 28 -26 69 -31
123 -68 126 -86 2 -11 21 -35 43 -53 30 -24 38 -37 34 -51 -4 -12 2 -33 15
-54 23 -37 20 -55 -8 -55 -10 0 -34 -8 -55 -19 l-36 -19 -15 23 c-18 28 -92
65 -129 65 -14 0 -38 -5 -52 -12 -19 -9 -34 -8 -67 3 -71 23 -136 15 -190 -23
-14 -10 -21 -9 -40 9 -32 28 -67 46 -108 53 l-35 6 43 41 c23 23 42 47 42 53
0 6 25 35 55 65 30 31 55 59 55 64 0 18 104 52 187 60 6 0 28 -8 47 -20z
m-373 -294 c24 -9 56 -26 72 -38 l27 -23 -29 -54 c-16 -30 -34 -80 -41 -110
-18 -85 -19 -86 -34 -64 -7 10 -19 44 -25 74 -7 30 -30 87 -51 127 -22 40 -40
74 -40 77 0 4 49 22 71 25 3 1 25 -6 50 -14z m317 -37 c23 -7 47 -6 82 3 43
11 54 10 90 -6 45 -20 74 -52 95 -102 21 -50 43 -179 49 -290 10 -164 46 -221
147 -231 45 -4 51 -2 83 30 40 40 53 90 38 150 -14 53 -8 60 13 18 19 -37 22
-115 5 -164 -15 -47 -69 -92 -119 -101 -89 -15 -221 65 -206 124 10 42 18 207
11 245 -10 50 -45 79 -156 127 -94 39 -103 42 -167 36 -92 -8 -168 -32 -203
-65 -39 -35 -62 -123 -58 -218 3 -81 -4 -94 -65 -126 -45 -22 -142 -27 -179
-7 -92 47 -124 149 -77 240 23 46 38 46 19 -1 -7 -17 -10 -50 -7 -76 12 -109
127 -147 222 -72 38 30 59 79 94 218 64 257 129 317 289 268z m500 -44 c31
-21 28 -40 -15 -82 -20 -21 -53 -60 -75 -89 -42 -58 -76 -82 -82 -61 -3 7 -8
35 -11 63 -4 27 -15 71 -25 97 l-18 47 47 20 c56 25 147 28 179 5z m-871 -125
c13 -46 30 -90 38 -99 20 -22 19 -44 -2 -105 -37 -102 -129 -158 -201 -121
-33 17 -57 65 -48 99 3 12 30 61 61 107 30 47 53 91 50 99 -8 20 55 125 67
113 6 -6 21 -48 35 -93z m490 -45 c110 -46 128 -58 144 -97 22 -53 15 -181
-16 -262 -15 -39 -33 -95 -42 -125 -8 -30 -21 -62 -28 -70 -8 -9 -19 -37 -25
-64 -17 -78 -24 -83 -48 -43 -35 60 -64 69 -216 65 l-133 -3 -13 150 c-22 261
-23 287 -11 340 16 71 52 104 138 126 106 27 151 24 250 -17z m333 -9 c0 -9
16 -57 36 -108 20 -52 33 -102 31 -116 -3 -14 1 -42 9 -64 20 -56 18 -72 -11
-85 -37 -17 -76 -15 -111 7 -47 29 -67 81 -72 192 l-5 96 27 7 c15 4 38 24 54
46 29 42 42 50 42 25z m-1082 -299 c41 -91 203 -118 304 -51 36 24 37 24 43 4
4 -11 8 -102 9 -202 2 -107 7 -191 14 -203 6 -11 11 -58 11 -105 0 -57 7 -107
22 -154 30 -99 46 -127 68 -120 14 4 22 -4 36 -37 24 -55 22 -53 40 -38 12 10
16 9 21 -6 4 -11 13 -35 21 -54 14 -33 15 -34 29 -16 8 11 14 23 14 28 0 17
19 7 25 -13 13 -39 47 -19 83 49 31 57 35 62 47 46 19 -27 38 -6 61 66 13 43
24 60 36 60 23 0 33 22 48 98 7 34 18 62 24 62 12 0 40 209 30 219 -10 10 -17
-14 -26 -96 -6 -48 -15 -91 -21 -95 -6 -4 -18 -42 -27 -85 -13 -66 -18 -78
-35 -78 -16 0 -25 -15 -44 -67 -13 -38 -27 -68 -32 -68 -5 0 -9 5 -9 10 0 6
-7 10 -15 10 -7 0 -30 -29 -50 -65 -20 -36 -40 -65 -44 -65 -4 0 -13 11 -19
25 -15 32 -28 32 -45 -1 l-14 -27 -7 29 c-10 40 -35 76 -49 71 -7 -2 -23 13
-37 35 -17 27 -30 38 -42 35 -13 -4 -22 8 -38 57 -22 66 -40 189 -32 218 4 15
8 14 39 -9 53 -41 132 -44 211 -8 71 32 85 45 105 100 33 90 50 132 67 170 11
22 28 73 40 113 l21 74 33 -34 c68 -70 163 -94 239 -60 l47 21 0 -105 c0 -83
-3 -104 -14 -104 -16 0 -21 -18 -37 -145 -7 -52 -9 -131 -5 -187 4 -71 3 -97
-6 -100 -9 -3 -9 -33 -1 -129 7 -68 15 -134 19 -146 4 -17 2 -23 -9 -23 -34 0
-26 -86 17 -187 13 -32 23 -60 21 -62 -2 -1 -14 4 -27 13 -12 9 -33 16 -45 16
-13 0 -35 13 -50 30 -28 32 -53 39 -53 15 0 -27 -15 -16 -66 45 -51 62 -78 77
-69 38 3 -13 2 -43 -2 -67 l-8 -44 -30 47 c-41 65 -61 61 -68 -14 -4 -32 -4
-67 0 -76 4 -11 2 -15 -4 -11 -5 4 -17 26 -27 49 -14 38 -56 78 -100 97 -5 2
-6 -27 -2 -70 l7 -73 -36 40 c-19 21 -42 52 -51 67 -22 41 -48 32 -52 -17 -3
-37 -4 -38 -18 -17 -21 29 -32 26 -42 -11 l-8 -33 -13 25 c-8 14 -39 50 -70
81 -38 38 -76 93 -121 174 -36 65 -72 120 -80 122 -10 3 -30 46 -53 111 -31
90 -38 125 -43 225 -5 79 -11 121 -21 128 -10 9 -13 47 -13 155 0 89 -4 144
-10 144 -16 0 -13 -295 3 -312 9 -9 16 -53 21 -126 5 -90 13 -133 40 -211 40
-116 53 -142 68 -138 6 1 35 -42 64 -96 59 -110 93 -158 141 -200 l32 -28 -20
-34 -20 -34 -36 20 c-26 15 -38 17 -48 9 -16 -13 -40 -3 -69 29 -14 16 -22 18
-32 10 -21 -18 -97 61 -138 144 -60 123 -122 420 -133 642 -4 102 -2 134 16
208 12 49 19 93 15 98 -6 10 57 199 67 199 3 0 11 -11 17 -24z m687 -328 c49
-39 64 -106 31 -147 -6 -8 -38 -27 -71 -43 -107 -50 -182 -34 -246 54 -27 38
-30 49 -25 91 3 26 8 52 11 57 4 6 63 10 139 10 122 0 136 -2 161 -22z m-529
-964 c14 4 28 -2 41 -17 17 -18 22 -39 26 -127 3 -75 10 -120 26 -158 11 -29
21 -71 21 -93 l0 -40 -117 3 -117 3 -6 31 c-5 19 2 59 17 109 27 91 28 139 8
250 -24 134 -23 137 32 81 36 -35 53 -46 69 -42z m787 39 c30 -36 36 -52 42
-113 12 -118 29 -169 75 -215 37 -38 60 -86 60 -127 0 -16 -13 -18 -139 -18
-124 0 -140 2 -145 18 -3 9 -5 67 -5 127 1 102 -1 115 -26 165 -24 47 -27 61
-21 114 7 65 13 79 26 56 23 -41 56 -84 65 -84 6 -1 11 13 13 29 4 47 13 97
17 94 1 -2 19 -23 38 -46z m-403 -6 c0 -6 14 -25 31 -43 28 -29 31 -39 34
-107 5 -86 22 -134 65 -183 25 -29 30 -43 30 -84 l0 -50 -120 0 -120 0 -11 26
c-6 19 -6 51 2 104 9 60 9 95 0 153 -9 58 -9 86 -1 118 11 41 13 42 26 24 8
-10 14 -25 14 -33 0 -7 6 -12 13 -10 7 3 13 26 15 57 2 29 7 49 13 46 5 -4 9
-11 9 -18z"/>
<path d="M797 1413 c-13 -12 -7 -23 11 -23 23 0 42 -19 42 -42 0 -22 16 -24
24 -2 4 10 -5 27 -23 45 -30 29 -42 34 -54 22z"/>
<path d="M946 1379 c-14 -11 -26 -27 -26 -35 0 -20 8 -17 34 13 22 26 26 27
50 14 32 -17 47 -7 20 14 -26 20 -47 19 -78 -6z"/>
</g>
</svg>
